<?xml version="1.0" standalone="no"?>
<!DOCTYPE svg PUBLIC "-//W3C//DTD SVG 20010904//EN"
 "http://www.w3.org/TR/2001/REC-SVG-20010904/DTD/svg10.dtd">
<svg version="1.0" xmlns="http://www.w3.org/2000/svg"
 width="121.000000pt" height="87.000000pt" viewBox="0 0 121.000000 87.000000"
 preserveAspectRatio="xMidYMid meet">

<g transform="translate(0.000000,87.000000) scale(0.100000,-0.100000)"
fill="#000000" stroke="none">
<path d="M427 731 c-29 -19 -52 -40 -28 -26 10 5 12 4 7 -4 -4 -6 -11 -9 -16
-6 -5 3 -55 -24 -111 -61 l-103 -66 25 -19 c13 -10 30 -17 37 -14 7 3 11 1 8
-4 -7 -11 175 -131 198 -131 2 0 3 60 3 133 1 190 2 212 11 202 5 -6 33 -71
62 -145 83 -212 81 -206 91 -188 4 8 36 84 70 169 33 85 65 158 70 163 10 11
11 3 10 -177 0 -110 2 -128 14 -123 8 3 15 1 15 -3 0 -5 -7 -11 -15 -15 -8 -3
-15 -10 -15 -16 0 -5 23 4 51 21 27 17 48 34 45 36 -3 3 -15 -2 -27 -10 -18
-13 -24 -14 -35 -2 -20 20 -17 27 5 15 26 -13 34 -13 25 2 -5 8 2 9 24 5 23
-5 39 0 69 22 21 15 57 38 80 51 l43 23 -33 22 c-17 12 -35 23 -39 24 -4 1
-44 26 -88 56 -43 30 -82 50 -85 44 -9 -13 22 -42 37 -34 7 4 4 -1 -6 -9 -11
-9 -17 -19 -13 -22 4 -4 13 -1 22 6 9 7 18 10 21 7 9 -8 -35 -29 -47 -21 -6 3
-8 12 -6 19 3 6 -3 19 -14 28 -21 19 -25 37 -7 37 6 0 3 7 -8 15 -15 11 -52
14 -169 14 -126 0 -154 -3 -178 -18z m13 -26 c0 -8 -2 -15 -4 -15 -2 0 -6 7
-10 15 -3 8 -1 15 4 15 6 0 10 -7 10 -15z m-23 -37 c-3 -8 -6 -5 -6 6 -1 11 2
17 5 13 3 -3 4 -12 1 -19z m-62 -13 c-16 -13 -37 -24 -45 -25 -8 0 1 11 20 25
46 31 64 32 25 0z m25 -15 c-8 -5 -19 -10 -25 -10 -5 0 -3 5 5 10 8 5 20 10
25 10 6 0 3 -5 -5 -10z m60 0 c0 -5 -5 -10 -11 -10 -5 0 -7 5 -4 10 3 6 8 10
11 10 2 0 4 -4 4 -10z m490 -31 c22 -22 40 -46 40 -52 0 -7 -5 -4 -11 6 -5 9
-16 17 -22 17 -14 0 -47 35 -47 51 0 5 -5 7 -12 3 -7 -4 -8 -3 -4 4 10 17 11
16 56 -29z m-643 -4 c-4 -8 -13 -15 -22 -15 -13 0 -12 3 3 18 19 21 27 20 19
-3z m140 -102 c-2 -21 -4 -6 -4 32 0 39 2 55 4 38 2 -18 2 -50 0 -70z m573 71
c0 -2 -9 0 -20 6 -11 6 -20 13 -20 16 0 2 9 0 20 -6 11 -6 20 -13 20 -16z
m-692 4 c-3 -7 -13 -15 -24 -17 -16 -3 -17 -1 -5 13 16 19 34 21 29 4z m592
-2 c0 -3 -4 -8 -10 -11 -5 -3 -10 -1 -10 4 0 6 5 11 10 11 6 0 10 -2 10 -4z
m-650 -16 c0 -5 -2 -10 -4 -10 -3 0 -8 5 -11 10 -3 6 -1 10 4 10 6 0 11 -4 11
-10z m676 -16 c-21 -12 -31 -13 -40 -4 -8 8 -7 10 5 5 10 -4 20 -2 24 4 3 6
14 11 23 11 11 -1 7 -6 -12 -16z m-606 -14 c0 -5 -7 -7 -15 -4 -8 4 -15 1 -15
-6 0 -6 -5 -8 -11 -4 -8 4 -7 9 2 15 19 12 39 11 39 -1z m640 6 c0 -2 -11 -11
-25 -20 -14 -9 -25 -13 -25 -8 0 5 10 14 23 20 27 13 27 13 27 8z m-640 -41
c0 -8 -2 -15 -4 -15 -2 0 -6 7 -10 15 -3 8 -1 15 4 15 6 0 10 -7 10 -15z m95
-45 c-28 -12 -37 -12 -30 0 3 6 16 10 28 9 21 0 21 -1 2 -9z"/>
<path d="M452 305 l-3 -40 -27 33 c-15 18 -33 32 -39 32 -16 0 -18 -76 -3 -85
6 -4 10 7 10 27 l1 33 30 -33 c17 -19 33 -32 35 -29 3 3 3 27 1 53 -3 47 -3
47 -5 9z"/>
<path d="M578 328 c-3 -7 -3 -30 0 -50 4 -35 7 -38 35 -38 17 0 27 3 23 7 -4
4 -15 8 -24 8 -27 0 -27 33 0 38 l23 4 -22 2 c-28 1 -31 21 -3 21 11 0 20 5
20 10 0 15 -47 12 -52 -2z"/>
<path d="M740 330 c0 -5 9 -10 19 -10 16 0 21 -8 24 -42 l4 -43 1 43 c2 35 5
42 22 42 11 0 20 5 20 10 0 6 -20 10 -45 10 -25 0 -45 -4 -45 -10z"/>
<path d="M445 200 c-16 -18 -20 -19 -35 -5 -28 25 -40 18 -40 -25 0 -22 5 -40
10 -40 6 0 10 14 10 31 0 18 4 28 10 24 6 -4 8 -14 6 -23 -4 -13 0 -17 19 -17
19 0 23 4 19 17 -2 9 0 19 6 23 6 4 10 -6 10 -24 0 -17 5 -31 10 -31 12 0 13
77 1 84 -4 3 -16 -3 -26 -14z"/>
<path d="M510 180 c-20 -40 -28 -80 -9 -47 5 9 19 17 31 17 11 0 27 -8 34 -17
21 -28 17 2 -6 47 -11 22 -22 40 -25 40 -3 0 -14 -18 -25 -40z m40 -11 c0 -5
-7 -9 -15 -9 -15 0 -20 12 -9 23 8 8 24 -1 24 -14z"/>
<path d="M603 213 c-15 -6 -18 -83 -3 -83 6 0 10 7 10 15 0 22 16 18 34 -7 9
-12 19 -19 23 -15 4 4 0 15 -9 24 -13 12 -14 20 -5 34 6 10 9 20 7 22 -10 9
-45 15 -57 10z m35 -25 c-6 -18 -28 -21 -28 -4 0 9 7 16 16 16 9 0 14 -5 12
-12z"/>
<path d="M680 176 c0 -25 5 -46 10 -46 6 0 10 8 10 17 0 14 4 12 25 -7 14 -13
28 -21 31 -17 4 4 -4 15 -17 26 -23 18 -23 20 -6 38 26 30 20 40 -8 13 -20
-19 -25 -20 -25 -7 0 9 -4 19 -10 22 -6 4 -10 -12 -10 -39z"/>
<path d="M783 213 c-21 -8 -14 -33 12 -45 30 -13 27 -34 -4 -31 -11 2 -21 -2
-21 -7 0 -16 46 -11 61 6 11 14 10 18 -6 30 -10 8 -22 14 -27 14 -4 0 -8 7 -8
16 0 11 6 15 20 11 11 -3 20 -1 20 4 0 10 -26 11 -47 2z"/>
</g>
</svg>
